<?xml version="1.0" encoding="UTF-8"?>
<svg version="1.1" viewBox="0 0 300 200" width="300" height="200" xmlns="http://www.w3.org/2000/svg">
	<g transform="matrix(2.0696 0 0 2.0696 13.098 -425.7)">
		<g transform="translate(-1.4647 -.94494)" stroke-width="1.1">
			<path transform="matrix(-.78087 -.6247 -.78087 .6247 0 0)" d="m-281.42 126.7h68.134v68.134h-68.134z" fill="#fc0" fill-rule="evenodd"/>
			<g fill="#484537" stroke-width="1.4242px" aria-label="baba">
				<path d="m17.111 240.41c-3.703 0-6.2952 1.4527-8.0897 3.6176v-16.293h-7.4061v41.018h7.2636v-3.0479c1.7945 2.2218 4.4436 3.76 8.2606 3.76 7.6055 0 13.359-6.2382 13.359-14.527s-5.7539-14.527-13.388-14.527zm-1.3673 6.9218c4.3867 0 7.1212 3.3897 7.1212 7.6055s-2.7345 7.6055-7.1212 7.6055c-4.2158 0-7.0927-3.2473-7.0927-7.6055s2.877-7.6055 7.0927-7.6055z"/>
				<path d="m63.729 241.15h-7.2636v3.0479c-1.823-2.2503-4.4721-3.7885-8.2606-3.7885-7.6055 0-13.359 6.2382-13.359 14.527s5.7539 14.527 13.359 14.527c3.7885 0 6.4661-1.5382 8.2606-3.76v3.0479h7.2636zm-14.157 6.1812c4.2442 0 7.1212 3.2473 7.1212 7.6055s-2.877 7.6055-7.1212 7.6055c-4.3582 0-7.1212-3.3897-7.1212-7.6055s2.763-7.6055 7.1212-7.6055z"/>
				<path d="m86.988 240.41c-3.703 0-6.2952 1.4527-8.0897 3.6176v-16.293h-7.4061v41.018h7.2636v-3.0479c1.7945 2.2218 4.4436 3.76 8.2606 3.76 7.6055 0 13.359-6.2382 13.359-14.527s-5.7539-14.527-13.388-14.527zm-1.3673 6.9218c4.3867 0 7.1212 3.3897 7.1212 7.6055s-2.7345 7.6055-7.1212 7.6055c-4.2158 0-7.0927-3.2473-7.0927-7.6055s2.877-7.6055 7.0927-7.6055z"/>
				<path d="m133.61 241.15h-7.2636v3.0479c-1.823-2.2503-4.4721-3.7885-8.2606-3.7885-7.6055 0-13.359 6.2382-13.359 14.527s5.7539 14.527 13.359 14.527c3.7885 0 6.4661-1.5382 8.2606-3.76v3.0479h7.2636zm-14.157 6.1812c4.2442 0 7.1212 3.2473 7.1212 7.6055s-2.877 7.6055-7.1212 7.6055c-4.3582 0-7.1212-3.3897-7.1212-7.6055s2.763-7.6055 7.1212-7.6055z"/>
			</g>
		</g>
	</g>
</svg>
